<svg t="1564653089583" class="icon" viewBox="0 0 1024 1024" version="1.1" xmlns="http://www.w3.org/2000/svg" p-id="9899" width="200" height="200"><path d="M651.29551 189.452863c-37.265742-39.005362-86.913489-60.483536-139.78772-60.483536s-102.517885 21.479197-139.789767 60.483536c-36.95568 38.675858-57.305147 90.01206-57.305147 144.552234 0 54.537104 20.349467 105.876376 57.305147 144.549164 10.317996 10.79895 21.587668 20.24509 33.605376 28.269857-40.695864 13.883195-86.888929 37.46938-127.319757 77.57275-67.035766 66.484204-101.137445 160.985508-101.360526 280.875039-0.024559 14.609743 11.794627 26.477025 26.406416 26.5067l0.050142 0c14.589276 0 26.430976-11.816117 26.455535-26.409486 0.252757-135.614677 47.362704-231.374648 140.016941-284.616246 70.254064-40.367383 142.28868-40.835034 143.390781-40.835034l0.118704 0c2.620687 0 5.154393-0.38681 7.54893-1.098008 49.441039-2.328022 95.550193-23.511483 130.670062-60.264549 36.95568-38.671765 57.307194-90.006943 57.307194-144.549164C708.606797 279.464923 688.25119 228.129744 651.29551 189.452863zM511.50779 486.123656c-79.499635 0-144.18282-68.238151-144.18282-152.11856 0-83.880409 64.683185-152.122653 144.18282-152.122653 79.503728 0 144.18282 68.243267 144.18282 152.122653C655.689586 417.881412 591.011518 486.123656 511.50779 486.123656z" p-id="9900" fill="#8a8a8a"></path><path d="M728.48145 559.664579c-12.598946-7.401574-28.813233-3.193739-36.214806 9.405207-7.40669 12.594853-3.193739 28.808116 9.400091 36.214806 0.206708 0.121773 21.701255 13.797237 43.710524 50.01716 22.382776 36.833907 49.061392 103.733573 49.061392 213.271338 0 14.610766 11.846816 26.456558 26.460652 26.456558 14.609743 0 26.456558-11.845793 26.456558-26.456558C847.356884 632.254851 733.333968 562.51858 728.48145 559.664579z" p-id="9901" fill="#8a8a8a"></path></svg>